<svg xmlns="http://www.w3.org/2000/svg" xmlns:xlink="http://www.w3.org/1999/xlink" width="1366" height="138" viewBox="0 0 1366 138">
  <defs>
    <linearGradient id="linear-gradient" x1="0.468" y1="-0.556" x2="0.532" y2="2.33" gradientUnits="objectBoundingBox">
      <stop offset="0" stop-color="#212a32"/>
      <stop offset="1" stop-color="#1e1e1e"/>
    </linearGradient>
  </defs>
  <g id="background-illustration" transform="translate(0 -84)">
    <path id="Path_3194" data-name="Path 3194" d="M0,0H1366V138H0Z" transform="translate(0 84)" fill="url(#linear-gradient)"/>
    <path id="Subtraction_2" data-name="Subtraction 2" d="M-2820,74a36.768,36.768,0,0,1-14.4-2.908,36.879,36.879,0,0,1-11.761-7.929,36.881,36.881,0,0,1-7.929-11.761A36.772,36.772,0,0,1-2857,37a36.772,36.772,0,0,1,2.907-14.4,36.881,36.881,0,0,1,7.929-11.761A36.878,36.878,0,0,1-2834.4,2.908,36.768,36.768,0,0,1-2820,0a36.768,36.768,0,0,1,14.4,2.908,36.879,36.879,0,0,1,11.761,7.929,36.881,36.881,0,0,1,7.929,11.761A36.772,36.772,0,0,1-2783,37a36.772,36.772,0,0,1-2.907,14.4,36.881,36.881,0,0,1-7.929,11.761,36.879,36.879,0,0,1-11.761,7.929A36.768,36.768,0,0,1-2820,74Zm0-73a36.041,36.041,0,0,0-36,36,36.041,36.041,0,0,0,36,36,36.041,36.041,0,0,0,36-36A36.041,36.041,0,0,0-2820,1Z" transform="translate(3954 120)" fill="#fff" opacity="0.31"/>
    <path id="Subtraction_4" data-name="Subtraction 4" d="M-2785,100a45.7,45.7,0,0,1-17.906-3.615,45.845,45.845,0,0,1-14.621-9.858,45.858,45.858,0,0,1-9.859-14.621A45.723,45.723,0,0,1-2831,54a45.723,45.723,0,0,1,3.614-17.905c.59-1.395,1.254-2.772,1.975-4.094h1.164A44.939,44.939,0,0,0-2830,54a45.051,45.051,0,0,0,45,45,45.051,45.051,0,0,0,45-45,44.943,44.943,0,0,0-5.753-22h1.164c.721,1.323,1.385,2.7,1.974,4.094A45.716,45.716,0,0,1-2739,54a45.716,45.716,0,0,1-3.615,17.905,45.861,45.861,0,0,1-9.858,14.621,45.844,45.844,0,0,1-14.622,9.858A45.7,45.7,0,0,1-2785,100Z" transform="translate(2958 52)" fill="#fff" opacity="0.31"/>
    <path id="Subtraction_3" data-name="Subtraction 3" d="M-2837.5,39a19.372,19.372,0,0,1-13.788-5.711A19.372,19.372,0,0,1-2857,19.5a19.373,19.373,0,0,1,5.711-13.789A19.372,19.372,0,0,1-2837.5,0a19.372,19.372,0,0,1,13.789,5.711A19.372,19.372,0,0,1-2818,19.5a19.371,19.371,0,0,1-5.712,13.788A19.373,19.373,0,0,1-2837.5,39Zm0-38A18.521,18.521,0,0,0-2856,19.5,18.52,18.52,0,0,0-2837.5,38,18.521,18.521,0,0,0-2819,19.5,18.521,18.521,0,0,0-2837.5,1Z" transform="translate(3460 174)" fill="#fff" opacity="0.31"/>
  </g>
</svg>
