<svg xmlns="http://www.w3.org/2000/svg" xmlns:xlink="http://www.w3.org/1999/xlink" width="241.457" height="236.058" viewBox="0 0 241.457 236.058">
  <defs>
    <linearGradient id="linear-gradient" x1="0.5" x2="0.5" y2="1" gradientUnits="objectBoundingBox">
      <stop offset="0" stop-color="#ffc9b3"/>
      <stop offset="1" stop-color="#ffd2c2"/>
    </linearGradient>
    <linearGradient id="linear-gradient-2" x1="0.5" y1="1" x2="0.5" gradientUnits="objectBoundingBox">
      <stop offset="0" stop-color="#ffe0cc"/>
      <stop offset="1" stop-color="#ffeadb"/>
    </linearGradient>
    <linearGradient id="linear-gradient-3" x1="0.5" y1="1" x2="0.5" gradientUnits="objectBoundingBox">
      <stop offset="0" stop-color="#806a6a"/>
      <stop offset="1" stop-color="#665654"/>
    </linearGradient>
    <clipPath id="clip-path">
      <path id="Mask" d="M15,30A15,15,0,1,0,0,15,15,15,0,0,0,15,30Z" transform="translate(29.502 29.537) rotate(180)" fill="url(#linear-gradient)"/>
    </clipPath>
    <linearGradient id="linear-gradient-5" x1="0.5" y1="1" x2="0.5" gradientUnits="objectBoundingBox">
      <stop offset="0" stop-color="#130027"/>
      <stop offset="1" stop-color="#130017"/>
    </linearGradient>
    <linearGradient id="linear-gradient-6" x1="0.5" x2="0.5" y2="1" gradientUnits="objectBoundingBox">
      <stop offset="0" stop-color="#e6864e"/>
      <stop offset="1" stop-color="#e67240"/>
    </linearGradient>
    <linearGradient id="linear-gradient-7" x1="0.5" y1="1" x2="0.5" gradientUnits="objectBoundingBox">
      <stop offset="0" stop-color="#c36f0b"/>
      <stop offset="1" stop-color="#c57515"/>
    </linearGradient>
    <clipPath id="clip-path-2">
      <path id="Mask-2" data-name="Mask" d="M8.476.7A6.019,6.019,0,0,0,6.037,0,5.315,5.315,0,0,0,3.7.7V2.885a3.916,3.916,0,0,0-.76-.045C.553,2.84-.347,6.317.118,10.546c.3,0,.995,0,1.99,1.393C1.859,10,4.745,10.3,5.839,11.84,5.292,10,6.735,8.756,7.978,9.5c2.439,1.463,2.987-3,.5-3.035Z" transform="translate(10.096 11.939) rotate(180)" fill="url(#linear-gradient-2)"/>
    </clipPath>
    <clipPath id="clip-path-3">
      <path id="Mask-3" data-name="Mask" d="M24,48A24,24,0,1,0,0,24,24,24,0,0,0,24,48Z" transform="translate(47.874 47.885) rotate(180)" fill="url(#linear-gradient-3)"/>
    </clipPath>
    <linearGradient id="linear-gradient-9" x1="0.5" y1="1" x2="0.5" gradientUnits="objectBoundingBox">
      <stop offset="0" stop-color="#f7b186"/>
      <stop offset="1" stop-color="#ffc299"/>
    </linearGradient>
  </defs>
  <g id="playground-illustration" transform="translate(-513 -312.159)">
    <g id="card-3" transform="translate(-568.824 -183.855)">
      <g id="Group_1420" data-name="Group 1420" transform="translate(1110.324 463.807)">
        <g id="search_7_" data-name="search (7)" transform="translate(90.245 65.297)">
          <path id="Path_2433" data-name="Path 2433" d="M3.825,11.98l-.6,2.243-2.2.046A8.645,8.645,0,0,1,.965,6.211h0L2.92,6.57l.856,1.943a5.15,5.15,0,0,0,.048,3.468Z" transform="translate(0 -1.55)" fill="#fbbb00"/>
          <path id="Path_2434" data-name="Path 2434" d="M20.042,9.352a8.627,8.627,0,0,1-3.076,8.342h0L14.5,17.568l-.348-2.175a5.143,5.143,0,0,0,2.213-2.626H11.753V9.352h8.289Z" transform="translate(-2.933 -2.334)" fill="#518ef8"/>
          <path id="Path_2435" data-name="Path 2435" d="M14.374,18.828h0a8.633,8.633,0,0,1-13-2.64l2.8-2.289a5.133,5.133,0,0,0,7.4,2.628Z" transform="translate(-0.342 -3.469)" fill="#28b446"/>
          <path id="Path_2436" data-name="Path 2436" d="M14.459,1.987l-2.8,2.289A5.132,5.132,0,0,0,4.1,6.963l-2.811-2.3h0A8.632,8.632,0,0,1,14.459,1.987Z" transform="translate(-0.321)" fill="#f14336"/>
        </g>
        <g id="github-logo" transform="translate(-4 32.208)">
          <path id="Path_3190" data-name="Path 3190" d="M39.13,10.983A20.88,20.88,0,0,0,31.5,3.351,20.512,20.512,0,0,0,20.971.538,20.515,20.515,0,0,0,10.445,3.351a20.878,20.878,0,0,0-7.632,7.632A20.514,20.514,0,0,0,0,21.509,20.381,20.381,0,0,0,4,33.838a20.539,20.539,0,0,0,10.335,7.577,1.222,1.222,0,0,0,1.092-.191,1.068,1.068,0,0,0,.355-.819q0-.082-.014-1.475t-.014-2.43l-.628.109a8.012,8.012,0,0,1-1.516.1,11.547,11.547,0,0,1-1.9-.191,4.241,4.241,0,0,1-1.83-.819,3.465,3.465,0,0,1-1.2-1.679l-.273-.628A6.823,6.823,0,0,0,7.55,32a3.3,3.3,0,0,0-1.188-1.038l-.191-.137a2,2,0,0,1-.355-.328,1.5,1.5,0,0,1-.246-.382q-.082-.192.136-.315a1.771,1.771,0,0,1,.792-.122l.546.082a3.986,3.986,0,0,1,1.352.655,4.407,4.407,0,0,1,1.324,1.42,4.813,4.813,0,0,0,1.516,1.707,3.215,3.215,0,0,0,1.788.587,7.765,7.765,0,0,0,1.556-.136,5.43,5.43,0,0,0,1.229-.41,4.424,4.424,0,0,1,1.338-2.813,18.7,18.7,0,0,1-2.8-.492,11.144,11.144,0,0,1-2.567-1.065,7.351,7.351,0,0,1-2.2-1.829,8.792,8.792,0,0,1-1.433-2.867,13.635,13.635,0,0,1-.56-4.1,7.965,7.965,0,0,1,2.157-5.625,7.341,7.341,0,0,1,.191-5.57,3.826,3.826,0,0,1,2.348.369,16.418,16.418,0,0,1,2.28,1.051q.724.436,1.161.737a19.721,19.721,0,0,1,10.486,0l1.038-.655a14.7,14.7,0,0,1,2.512-1.2,3.579,3.579,0,0,1,2.213-.3,7.27,7.27,0,0,1,.218,5.57,7.966,7.966,0,0,1,2.158,5.625,13.787,13.787,0,0,1-.56,4.109,8.451,8.451,0,0,1-1.447,2.867,7.634,7.634,0,0,1-2.212,1.816,11.165,11.165,0,0,1-2.567,1.065,18.678,18.678,0,0,1-2.8.492,4.864,4.864,0,0,1,1.42,3.877V40.4a1.088,1.088,0,0,0,.342.819,1.186,1.186,0,0,0,1.078.191,20.536,20.536,0,0,0,10.336-7.577,20.385,20.385,0,0,0,4-12.329A20.53,20.53,0,0,0,39.13,10.983Z" transform="translate(0 -0.538)"/>
        </g>
        <g id="facebook_8_" data-name="facebook (8)" transform="translate(56.681 40.917)">
          <path id="Intersection_2" data-name="Intersection 2" d="M0,11.75A11.746,11.746,0,1,1,11.747,23.5,11.748,11.748,0,0,1,0,11.75Z" transform="translate(0 0)" fill="#1976d2"/>
          <path id="Intersection_3" data-name="Intersection 3" d="M3.064,19.611V11.5H0V7.668H3.064V4.6A4.6,4.6,0,0,1,7.668,0h3.064V3.835H9.2c-.85,0-1.532-.08-1.532.765V7.668H11.5L9.967,11.5h-2.3v7.234a11.711,11.711,0,0,1-4.468.88Z" transform="translate(8.547 3.885)" fill="#fff"/>
        </g>
      </g>
    </g>
    <g id="Layer_2" data-name="Layer 2" transform="translate(572.073 332.278)">
      <g id="Слой_1" data-name="Слой 1" transform="translate(0.034 -0.003)">
        <g id="_4" data-name="4" transform="translate(0)">
          <g id="CHAIR" transform="translate(86.587 123.783)">
            <line id="Line_30" data-name="Line 30" y2="80.379" transform="translate(8.853 10.773)" fill="none" stroke="#ffb000" stroke-miterlimit="10" stroke-width="6"/>
            <line id="Line_31" data-name="Line 31" y2="80.379" transform="translate(44.367 10.773)" fill="none" stroke="#ffb000" stroke-miterlimit="10" stroke-width="6"/>
            <line id="Line_32" data-name="Line 32" x2="35.422" transform="translate(8.51 78.23)" fill="none" stroke="#ffb000" stroke-miterlimit="10" stroke-width="6"/>
            <rect id="Rectangle_13" data-name="Rectangle 13" width="52.877" height="10.773" rx="5.386" fill="#fff" stroke="#6562cf" stroke-miterlimit="10" stroke-width="2"/>
          </g>
          <g id="CHARACTER" transform="translate(43.374)">
            <g id="HOOD" transform="translate(53.319 26.879)">
              <path id="Path_197" data-name="Path 197" d="M593.6,175.012c2.922-.82,6.963-9.894,2.536-14.808s-13.809-5.063-21.773-3.87c-7.362,1.1-17.032,5.373-13.346,14.584C566.259,184.014,593.6,175.012,593.6,175.012Z" transform="translate(-560.208 -155.713)" fill="#ffb819"/>
              <path id="Path_198" data-name="Path 198" d="M605.5,174.445c2.762-.583,7.507-5.178,3.337-8.676s-10.593-3.837-17.434-2.669-13.93,3.587-10.676,10.217S605.5,174.445,605.5,174.445Z" transform="translate(-576.508 -161.325)" fill="#f49c00"/>
            </g>
            <g id="LEGS" transform="translate(16.152 98.956)">
              <g id="RIGHT_FOOT" data-name="RIGHT FOOT" transform="translate(60.249 87.801)">
                <path id="Path_199" data-name="Path 199" d="M716.137,1138.583c-1.787,1.1-12.713,1.036-14.776,0s-1.579-4.536-1.923-6.874-5.223-6.732-5.5-8.246,5.016-4.811,5.934-6.154c-.756,2.23,6.813,2.719,7.422,1.274-.3,5.292,3.592,13.705,6.782,14.465C716.087,1133.529,717.924,1137.483,716.137,1138.583Z" transform="translate(-693.93 -1111.205)" fill="#dbdaff"/>
                <path id="Path_200" data-name="Path 200" d="M737.153,1083.531l-1.633,5.788c-.606,1.445-8.175.956-7.422-1.274a19.991,19.991,0,0,0,.468-6.105Z" transform="translate(-722.157 -1081.94)" fill="#c36f0b"/>
                <path id="Path_201" data-name="Path 201" d="M694,1153c.276,1.512,5.154,5.91,5.5,8.248s-.138,5.841,1.923,6.872,12.989,1.1,14.776,0" transform="translate(-693.988 -1140.734)" fill="none" stroke="#6562cf" stroke-linecap="round" stroke-miterlimit="10" stroke-width="2"/>
                <path id="Path_202" data-name="Path 202" d="M773.81,1204.453a10.822,10.822,0,0,1,7.232-.345" transform="translate(-760.022 -1182.615)" fill="none" stroke="#fff" stroke-linecap="round" stroke-miterlimit="10" stroke-width="6"/>
              </g>
              <g id="LEFT_FOOT" data-name="LEFT FOOT" transform="translate(31.94 87.283)">
                <path id="Path_203" data-name="Path 203" d="M530.656,1134.446c1.787,1.1,11.5,1.036,13.567,0s3.306-4.536,3.649-6.873,3.67-7.6,3.944-9.109-5.016-4.811-5.934-6.154c.756,2.23-6.64,3.582-7.25,2.137.3,5.292-2.731,13.706-5.919,14.465C530.7,1129.392,528.869,1133.346,530.656,1134.446Z" transform="translate(-529.931 -1106.55)" fill="#dbdaff"/>
                <path id="Path_204" data-name="Path 204" d="M558.9,1080.7l3.7,6.133c.606,1.445,8,.093,7.25-2.137a28.44,28.44,0,0,1-.986-5.76Z" transform="translate(-553.9 -1078.94)" fill="#c36f0b"/>
                <path id="Path_205" data-name="Path 205" d="M555.282,1148c-.274,1.512-3.6,6.773-3.944,9.111s-1.588,5.841-3.651,6.872-11.779,1.1-13.567,0" transform="translate(-533.397 -1136.079)" fill="none" stroke="#6562cf" stroke-linecap="round" stroke-miterlimit="10" stroke-width="2"/>
                <path id="Path_206" data-name="Path 206" d="M548.232,1204.453a10.812,10.812,0,0,0-7.232-.345" transform="translate(-539.089 -1182.098)" fill="none" stroke="#fff" stroke-linecap="round" stroke-miterlimit="10" stroke-width="6"/>
              </g>
              <path id="PANTS" d="M380.838,574.84s-35.948,17.607-35.948,28.436c0,19.319,32.153,60.069,37.674,59.534s10.961-1.7,10.749-4.041-11.776-38.983-20.762-49.832c0,0,3.28-5.163,23.774-4.937,9.877.109,18.489.78,18.7,1.1s-10.738,21.691-5.151,54.736c.488,2.879,12.53,4.087,13.7,2.494s19.857-57.706,18.054-62.172-20.541-20.458-29.679-25.324C405.365,571.333,380.838,574.84,380.838,574.84Z" transform="translate(-344.89 -573.28)" fill="#3f4d79"/>
            </g>
            <g id="HOODY" transform="translate(8.119 38.851)">
              <path id="Path_207" data-name="Path 207" d="M332.066,230.906c-4.559,2.5-11.372,24.948-11.372,24.948s-16.415-20.149-17.175-20.339-5.17,5.7-5.17,5.7,8.57,38.265,21.939,39.116c5.612.357,10.357-2.9,14.253-7.655,1.726,5.757,3.338,10.5,3.338,10.5.69,2.417-12.193,9.071-9.254,10.9,0,0,10.031-3.262,27.73,1.3,21.162,5.461,31.393,1.319,29.392-.269s-5.142-6.751-6.228-10.2l1.952-18.587s6.832,17.341,17.159,17.341c12.319,0,23.579-37.662,23.579-37.662a14.554,14.554,0,0,1-8.008-3.252c-4.63,3.252-14.265,14.644-14.265,14.644s-6.005-18.154-8.883-22.283-12.255-7.383-18.518-8.883l-24.773-1.127C346.1,224.775,335.945,228.257,332.066,230.906Z" transform="translate(-298.35 -225.073)" fill="#ffb000"/>
              <path id="Path_208" data-name="Path 208" d="M858.3,407.87c-3.133,3.6-5.964,10.012-5.964,10.012" transform="translate(-756.714 -376.317)" fill="none" stroke="#f49c00" stroke-miterlimit="10" stroke-width="6"/>
              <path id="Path_209" data-name="Path 209" d="M596.282,233.686c-12.028-1.017-24.1,6.549-24.1,6.549s-10.616-2.379-12.739-9.445" transform="translate(-514.372 -229.803)" fill="none" stroke="#f49c00" stroke-miterlimit="10" stroke-width="6"/>
              <path id="Path_210" data-name="Path 210" d="M493.1,431.722s-6.639-19.07-7.566-27.112" transform="translate(-453.22 -373.62)" fill="none" stroke="#f49c00" stroke-linecap="round" stroke-miterlimit="10" stroke-width="6"/>
            </g>
            <g id="ARMS" transform="translate(0 38.034)">
              <g id="RIGHT" transform="translate(123.746 4.83)">
                <path id="Path_211" data-name="Path 211" d="M976.1,251.487c-.161,1.027-1.277,2.62-.173,2.608.57,0,4.688-.671,5.192.844a3.308,3.308,0,0,1-.109,2.187,2.3,2.3,0,0,1,.212,2.449,2.367,2.367,0,0,1,.311,2.4s.954,2.2.043,2.712a15.376,15.376,0,0,1-9.509,1.353c-1.531-.4-3.368-1.341-3.837-4.6-.193-1.334,1.136-4.833,2.151-6.276.414-.594,1.932-2.962,2.444-3.611a7.665,7.665,0,0,0,1.453-3.236S976.548,248.619,976.1,251.487Z" transform="translate(-968.21 -248.32)" fill="#c36f0b"/>
                <path id="Path_212" data-name="Path 212" d="M1008.854,285.5c.1.69-4.106.835-4.833.994-1.036.224-.9,2.436.442,2.22a28.068,28.068,0,0,0,5.418-.782" transform="translate(-997.273 -279.082)" fill="none" stroke="#b65a18" stroke-linecap="round" stroke-miterlimit="10" stroke-width="4"/>
                <path id="Path_213" data-name="Path 213" d="M1011.09,305.767a27.749,27.749,0,0,1-5.638.815c-.649.128-1.484-2.166.09-2.461" transform="translate(-998.353 -294.488)" fill="none" stroke="#b65a18" stroke-linecap="round" stroke-miterlimit="10" stroke-width="4"/>
                <path id="Path_214" data-name="Path 214" d="M1011.739,320.083a23.82,23.82,0,0,1-5.638.815c-.62.074-1.395-2.108-.129-2.258" transform="translate(-998.892 -306.502)" fill="none" stroke="#b65a18" stroke-linecap="round" stroke-miterlimit="10" stroke-width="4"/>
                <path id="Path_215" data-name="Path 215" d="M1009.7,331.474s-1.5-.14-1.474.792c.041,1.657.844,1.835,4.633,1.139" transform="translate(-1001.321 -317.115)" fill="none" stroke="#b65a18" stroke-linecap="round" stroke-miterlimit="10" stroke-width="4"/>
              </g>
              <g id="LEFT">
                <path id="ARM" d="M258.612,223.243c.035,1.036.941,2.738-.145,2.589-.563-.076-4.541-1.231-5.222.2a3.28,3.28,0,0,0-.159,2.17,2.287,2.287,0,0,0-.507,2.389,2.355,2.355,0,0,0-.6,2.332s-1.208,2.052-.373,2.667a15.265,15.265,0,0,0,9.211,2.489c1.553-.2,3.482-.913,4.341-4.069.345-1.291-.533-4.894-1.357-6.447-.337-.637-1.545-3.155-1.973-3.858a7.65,7.65,0,0,1-1.036-3.366S258.519,220.361,258.612,223.243Z" transform="translate(-251.315 -220.34)" fill="#c36f0b"/>
                <g id="FINGERS" transform="translate(1.154 5.658)">
                  <path id="Path_216" data-name="Path 216" d="M263.49,262.877c3.651,1.146,4.464,1.067,4.707-.561.076-.518-.364-.754-.763-.863a5.113,5.113,0,0,0,.557.078c.556.136,1.5-1.757.663-2.28a3.787,3.787,0,0,0,.709-2.51c.644-.445.69-1.766-.059-2.03-.706-.247-4.833-.9-4.661-1.571Z" transform="translate(-262.542 -253.137)" fill="#c36f0b"/>
                  <path id="Path_217" data-name="Path 217" d="M263.87,255.4a28.447,28.447,0,0,0,5.044,1.429c1.3.375,1.7-1.788.706-2.135-.706-.247-4.008-1.322-4.661-1.569" transform="translate(-262.857 -253.12)" fill="none" stroke="#b65a18" stroke-linecap="round" stroke-miterlimit="10" stroke-width="3"/>
                  <path id="Path_218" data-name="Path 218" d="M261.43,275.529a30.065,30.065,0,0,0,5.254,1.488c.623.2,1.726-1.954.211-2.437" transform="translate(-260.838 -270.876)" fill="none" stroke="#b65a18" stroke-linecap="round" stroke-miterlimit="10" stroke-width="3"/>
                  <path id="Path_219" data-name="Path 219" d="M258,289.17a23.524,23.524,0,0,0,5.458,1.488c.6.15,1.443-2.113-.035-2.308" transform="translate(-258 -282.269)" fill="none" stroke="#b65a18" stroke-linecap="round" stroke-miterlimit="10" stroke-width="3"/>
                  <path id="Path_220" data-name="Path 220" d="M266.847,300.73s1.493.045,1.358.961c-.243,1.628-1.055,1.705-4.705.561" transform="translate(-262.551 -292.512)" fill="none" stroke="#b65a18" stroke-linecap="round" stroke-miterlimit="10" stroke-width="3"/>
                </g>
              </g>
            </g>
            <g id="HEAD" transform="translate(52.933)">
              <g id="NECK" transform="translate(4.602 23.852)">
                <path id="Path_221" data-name="Path 221" d="M604.149,138.185s-2.629,11.762,5.254,16.141c0,0-7.25,1.251-16.516,8.883,0,0-7.132-6.005-8.258-10.012,0,0,7.25-2.5,6.506-15.017Z" transform="translate(-584.63 -138.18)" fill="#c36f0b"/>
                <path id="Path_222" data-name="Path 222" d="M604.149,138.21H591.136c.751,12.513-6.506,15.017-6.506,15.017s14.47,0,18.563-12.9Z" transform="translate(-584.63 -138.205)" fill="#b65a18"/>
              </g>
              <path id="HEAD-2" data-name="HEAD" d="M607.54,56.157a15.1,15.1,0,0,1-13.1,7.538c-8.237,0-9.494-24.178,2.774-24.511C608.9,38.867,607.4,52.7,607.4,52.7s2.1-1.224,2.869.05S607.54,56.157,607.54,56.157Z" transform="translate(-582.922 -32.416)" fill="#c36f0b"/>
              <g id="HAIR">
                <path id="Path_223" data-name="Path 223" d="M602.2,44.44s-.133,4.186-5.927,4.122c-5.032-.055-7.79,2.793-8.059,4.844" transform="translate(-582.99 -36.769)" fill="none" stroke="#3f4d79" stroke-linecap="round" stroke-miterlimit="10" stroke-width="3"/>
                <path id="Path_224" data-name="Path 224" d="M593.066,15.935c0,4.56-5.5,8.5-11.6,11.178a3.793,3.793,0,0,1-1.683.136,14.355,14.355,0,0,0,2.8-3.511s3.471-2.165,2.72-3.409-2.869-.052-2.869-.052,1.055-9.64-5.4-12.635c-.05.093-1.726,3.048-6.68,3.205-4.712.147-6,1.944-6.537,3.822-.017.066-.035.129-.05.2a21.075,21.075,0,0,0-.428,7.636l-.028-.01c-.457-.556-6.708-8.477-5.076-12.725,1.773-4.617,13.1-11.13,22.174-9.518C585.482,1.151,593.065,13.538,593.066,15.935Z" transform="translate(-557.971 0.003)" fill="#3f4d79"/>
              </g>
            </g>
          </g>
          <g id="COMPUTER" transform="translate(0 29.963)">
            <g id="COMPUTER-2" data-name="COMPUTER">
              <path id="Path_225" data-name="Path 225" d="M97.94,225.556H28.421a4.559,4.559,0,0,1-4.315-3.107L9.371,178.576a3.205,3.205,0,0,1,3.04-4.226h69.52a4.56,4.56,0,0,1,4.315,3.107l14.726,43.863a3.205,3.205,0,0,1-3.031,4.236Z" transform="translate(-7.621 -174.217)" fill="#c7bfff"/>
              <path id="Path_226" data-name="Path 226" d="M88.767,235.507H19.245A4.559,4.559,0,0,1,14.93,232.4L.2,188.536a3.205,3.205,0,0,1,3.038-4.226H72.757a4.559,4.559,0,0,1,4.315,3.107L91.8,231.281a3.205,3.205,0,0,1-3.033,4.226Z" transform="translate(-0.034 -182.458)" fill="#fff"/>
              <path id="Path_227" data-name="Path 227" d="M97.94,224.777H28.421a4.557,4.557,0,0,1-4.315-3.107L9.371,177.806a3.205,3.205,0,0,1,3.04-4.226h69.52a4.56,4.56,0,0,1,4.315,3.107l14.733,43.864a3.205,3.205,0,0,1-3.038,4.226Z" transform="translate(-7.621 -173.58)" fill="none" stroke="#6562cf" stroke-miterlimit="10" stroke-width="1"/>
              <path id="Path_228" data-name="Path 228" d="M319.642,390.53l5.289,13.162H313.5S315.722,393.4,319.642,390.53Z" transform="translate(-259.392 -353.082)" fill="#e2e2ff"/>
              <path id="Path_229" data-name="Path 229" d="M234.123,422.987c-22.507,0-13.043-24.085-8.567-29.087H208.235c-4.474,5.006-16.583,30.409,5.922,30.409h19.966Z" transform="translate(-166.272 -355.87)" fill="#fff" stroke="#6562cf" stroke-miterlimit="10" stroke-width="1"/>
              <ellipse id="Ellipse_22" data-name="Ellipse 22" cx="3.29" cy="4.144" rx="3.29" ry="4.144" transform="translate(39.98 24.909) rotate(-57.74)" fill="#e2e2ff"/>
              <ellipse id="Ellipse_23" data-name="Ellipse 23" cx="3.29" cy="4.144" rx="3.29" ry="4.144" transform="translate(41.086 23.976) rotate(-57.74)" fill="none" stroke="#6562cf" stroke-miterlimit="10" stroke-width="1"/>
            </g>
            <g id="TABLE" transform="translate(16.177 68.439)">
              <path id="Path_230" data-name="Path 230" d="M93.75,570.07H196.829a2.657,2.657,0,0,1,2.745,2.562h0a2.657,2.657,0,0,1-2.745,2.56H93.75Z" transform="translate(-93.75 -570.07)" fill="#fff"/>
              <path id="Path_231" data-name="Path 231" d="M93.75,570.07H196.829a2.657,2.657,0,0,1,2.745,2.562h0a2.657,2.657,0,0,1-2.745,2.56H93.75" transform="translate(-93.75 -570.07)" fill="none" stroke="#6562cf" stroke-miterlimit="10" stroke-width="1"/>
            </g>
          </g>
        </g>
      </g>
    </g>
    <g id="card-2" transform="translate(-242.548 4.512)">
      <g id="User_01c" data-name="User 01c" transform="translate(756.046 358.952)">
        <path id="Mask-4" data-name="Mask" d="M15,30A15,15,0,1,0,0,15,15,15,0,0,0,15,30Z" transform="translate(29.502 29.537) rotate(180)" fill="url(#linear-gradient)"/>
        <g id="User_01c-2" data-name="User 01c" transform="translate(0 0)" clip-path="url(#clip-path)">
          <path id="Combined_Shape" data-name="Combined Shape" d="M17.628,10.7c.807,2.68,1.3,7.263-2.089,10.4-2.594,2.4-9.6,2.637-12.039-2.587-.407-.872.149-2.239,1.244-2.189.43.02.7-1.343.945-2.189C5.34,10.7,2.238,10.632.664,8.009-1.276,4.776,1.112,0,6.833,0S15.833,4.736,17.628,10.7Z" transform="translate(25.897 25.778) rotate(180)" fill="url(#linear-gradient-5)"/>
          <g id="Group_16" data-name="Group 16" transform="translate(4.997 8.068)">
            <path id="Rectangle" d="M20.825,6.9C21.608,5.416,22,0,22,0H0S.392,5.416,1.175,6.9C2.35,9.133,11,12,11,12S19.65,9.133,20.825,6.9Z" transform="translate(21.506 21.469) rotate(180)" fill="url(#linear-gradient-6)"/>
            <path id="Mask-5" data-name="Mask" d="M8.476.7A6.019,6.019,0,0,0,6.037,0,5.315,5.315,0,0,0,3.7.7V2.885a3.916,3.916,0,0,0-.76-.045C.553,2.84-.347,6.317.118,10.546c.3,0,.995,0,1.99,1.393C1.859,10,4.745,10.3,5.839,11.84,5.292,10,6.735,8.756,7.978,9.5c2.439,1.463,2.987-3,.5-3.035Z" transform="translate(16.573 11.939) rotate(180)" fill="url(#linear-gradient-7)"/>
            <g id="Group_16-2" data-name="Group 16" transform="translate(6.478 0)" clip-path="url(#clip-path-2)">
              <path id="Path_2" data-name="Path 2" d="M0,.8A10.088,10.088,0,0,1,3.482,2.139,4.447,4.447,0,0,0,0,0Z" transform="translate(6.396 9.85) rotate(180)" fill="#ffd7b8" opacity="0.782" style="mix-blend-mode: multiply;isolation: isolate"/>
            </g>
          </g>
          <g id="Group_9" data-name="Group 9" transform="translate(11.701 18.117)">
            <path id="Combined_Shape-2" data-name="Combined Shape" d="M3.784,1.744c.719.033,2.385.385,2.385,1.146v.643a2.285,2.285,0,0,0,.974-.8A1.635,1.635,0,0,0,6.065,0,2.816,2.816,0,0,0,3.781,1.5,2.816,2.816,0,0,0,1.5,0,1.635,1.635,0,0,0,.419,2.736a2.285,2.285,0,0,0,.974.8V2.889c0-.761,1.711-1.113,2.391-1.146Z" transform="translate(7.562 3.532) rotate(180)" fill="#fff"/>
          </g>
        </g>
      </g>
      <g id="User_02b" data-name="User 02b" transform="translate(794.674 395.604)">
        <path id="Mask-6" data-name="Mask" d="M24,48A24,24,0,1,0,0,24,24,24,0,0,0,24,48Z" transform="translate(47.874 47.885) rotate(180)" fill="url(#linear-gradient-3)"/>
        <g id="User_02b-2" data-name="User 02b" transform="translate(0 0)" clip-path="url(#clip-path-3)">
          <path id="Mask-7" data-name="Mask" d="M12.065,4.495V0H1.791s.019,6.646,0,11.047c-2.3,2.982-2.3,4.846-.482,6.773s14.769,2.89,14.769,2.89S17.05,11.364,17.2,8.829c.061-1.019.722-4.334-1.846-4.334Z" transform="translate(31.449 32.314) rotate(180)" fill="url(#linear-gradient-9)"/>
          <path id="Path_48" data-name="Path 48" d="M5,2.6A10.6,10.6,0,0,0,0,5,7.485,7.485,0,0,1,5,0Z" transform="translate(24.874 29.885) rotate(180)" fill="#f08956"/>
          <path id="Combined_Shape-3" data-name="Combined Shape" d="M6.607,12.168a1.63,1.63,0,0,1-2.008.278C2.52,11.366,3.9,7.2,6.226,7.284c.8.028.435-1.572-1.71-2.628,0,1.686-2.569,5.859-2.793,9.66-2.585.962-1.943,4.813-.168,4.813-.284,3.53,5.369,5.353,7.557,3.328,2.226,2.667,7.845,1.3,8.184-1.011,3.863,2.062,6.4-3.866,2.785-6.167-1.489-.947-4.971-1.308-10-1.308-2.412,0-1.025-5.646-.271-7.468.963-2.328,6.341-2.649,8.027-2.408,1.316.188,2.007.722,2.087,1.043C21.132,1.926,19.607,0,17.2,0,13.105,0,9.011,1.2,8.369,4.174,7.858,6.537,7.886,10.352,6.607,12.168Z" transform="translate(34.174 28.622) rotate(180)" fill="#fff"/>
          <g id="Group_2" data-name="Group 2" transform="translate(5.257 30.315)">
            <path id="Combined_Shape-4" data-name="Combined Shape" d="M36.12,10.274Q37.648,7.167,38.528,0H0Q.88,7.168,2.408,10.274c1.015,2.064,10.435,6.037,10.435,6.037s.188,1.816.642,2.077a85.632,85.632,0,0,0,11.558,0c.541-.26.642-2.075.642-2.075S35.107,12.334,36.12,10.274Z" transform="translate(38.528 18.583) rotate(180)" fill="url(#linear-gradient)"/>
          </g>
        </g>
      </g>
    </g>
  </g>
</svg>
